<svg xmlns="http://www.w3.org/2000/svg" style="display:none">

    <!-- down-arrow -->
    <symbol id="down-arrow" viewBox="0 0 120 61">
        <path d="M1.5 1 60 36l58.5-35" fill="none" stroke="currentColor" stroke-width="2" />
        <path d="M1.5 26 60 59l58.5-33" fill="none" stroke="currentColor" stroke-width="2" />
    </symbol>

    <!-- logout-icon -->
    <symbol id="logout-icon" viewBox="0 0 24 24">
        <path d="m16 17 5-5-5-5" fill="none" stroke="currentColor" stroke-width="2" stroke-linecap="round"
            stroke-linejoin="round" />
        <path d="M21 12H9" fill="none" stroke="currentColor" stroke-width="2" stroke-linecap="round"
            stroke-linejoin="round" />
        <path d="M9 21H5a2 2 0 0 1-2-2V5a2 2 0 0 1 2-2h4" fill="none" stroke="currentColor" stroke-width="2"
            stroke-linecap="round" stroke-linejoin="round" />
    </symbol>

    <symbol id="grape" viewBox="0 0 24 24">
        <path d="M22 5V2l-5.89 5.89" />
        <circle cx="16.6" cy="15.89" r="3" />
        <circle cx="8.11" cy="7.4" r="3" />
        <circle cx="12.35" cy="11.65" r="3" />
        <circle cx="13.91" cy="5.85" r="3" />
        <circle cx="18.15" cy="10.09" r="3" />
        <circle cx="6.56" cy="13.2" r="3" />
        <circle cx="10.8" cy="17.44" r="3" />
        <circle cx="5" cy="19" r="3" />
    </symbol>

    <symbol id="google-icon" viewBox="0 0 256 262">
        <path fill="#4285f4"
            d="M255.878 133.451c0-10.734-.871-18.567-2.756-26.69H130.55v48.448h71.947c-1.45 12.04-9.283 30.172-26.69 42.356l-.244 1.622 38.755 30.023 2.685.268c24.659-22.774 38.875-56.282 38.875-96.027" />
        <path fill="#34a853"
            d="M130.55 261.1c35.248 0 64.839-11.605 86.453-31.622l-41.196-31.913c-11.024 7.688-25.82 13.055-45.257 13.055-34.523 0-63.824-22.773-74.269-54.25l-1.531.13-40.298 31.187-.527 1.465C35.393 231.798 79.49 261.1 130.55 261.1" />
        <path fill="#fbbc05"
            d="M56.281 156.37c-2.756-8.123-4.351-16.827-4.351-25.82 0-8.994 1.595-17.697 4.206-25.82l-.073-1.73L15.26 71.312l-1.335.635C5.077 89.644 0 109.517 0 130.55s5.077 40.905 13.925 58.602z" />
        <path fill="#eb4335"
            d="M130.55 50.479c24.514 0 41.05 10.589 50.479 19.438l36.844-35.974C195.245 12.91 165.798 0 130.55 0 79.49 0 35.393 29.301 13.925 71.947l42.211 32.783c10.59-31.477 39.891-54.251 74.414-54.251" />
    </symbol>
    <symbol id="arrow-back" viewBox="0 0 24 24">
        <path d="M3 7v6h6" />
        <path d="M21 17a9 9 0 0 0-9-9 9 9 0 0 0-6 2.3L3 13" />
    </symbol>


</svg>